<?xml version="1.0" standalone="no"?>
<!DOCTYPE svg PUBLIC "-//W3C//DTD SVG 20010904//EN"
 "http://www.w3.org/TR/2001/REC-SVG-20010904/DTD/svg10.dtd">
<svg version="1.0" xmlns="http://www.w3.org/2000/svg"
 width="277.000000pt" height="264.000000pt" viewBox="0 0 277.000000 264.000000"
 preserveAspectRatio="xMidYMid meet">

<g transform="translate(0.000000,264.000000) scale(0.100000,-0.100000)"
fill="#000000" stroke="none">
<path d="M1260 2582 c-281 -94 -495 -205 -710 -366 -110 -82 -342 -309 -453
-443 l-77 -93 1 -97 c1 -252 58 -543 153 -783 68 -170 196 -396 320 -564 52
-71 57 -74 123 -94 512 -156 963 -159 1502 -10 l113 31 70 93 c90 123 156 230
222 362 141 282 196 517 221 948 l7 110 -30 45 c-59 87 -227 273 -326 361
-241 212 -492 357 -840 482 -70 26 -140 49 -155 52 -15 2 -75 -12 -141 -34z
m230 -48 c497 -172 845 -409 1133 -769 l80 -100 -7 -135 c-16 -347 -90 -642
-229 -913 -46 -91 -200 -331 -247 -386 -47 -55 -464 -141 -760 -157 -241 -13
-573 34 -827 117 l-62 20 -100 149 c-264 393 -391 783 -391 1201 l0 112 72 86
c329 392 663 621 1133 777 55 18 101 33 102 34 0 0 47 -16 103 -36z"/>
<path d="M1250 2461 c-232 -82 -357 -143 -530 -257 -161 -106 -345 -276 -500
-461 l-82 -98 6 -150 c9 -234 45 -422 117 -620 60 -164 194 -405 311 -560 l53
-69 95 -28 c129 -39 311 -75 449 -89 151 -16 421 -6 576 20 165 28 406 89 429
109 25 23 124 161 176 247 180 294 265 576 292 967 l11 167 -57 75 c-199 259
-462 474 -761 621 -119 58 -365 156 -425 169 -16 3 -75 -12 -160 -43z m259
-16 c459 -160 801 -396 1058 -732 l56 -73 -2 -97 c-6 -361 -106 -721 -277
-1006 -57 -93 -176 -257 -194 -267 -9 -5 -70 -23 -135 -40 -430 -111 -791
-116 -1190 -15 -201 50 -189 42 -298 207 -241 364 -340 660 -362 1081 l-7 127
58 73 c178 222 425 437 649 564 147 82 462 211 522 212 11 1 67 -15 122 -34z"/>
<path d="M1330 2269 c0 -61 2 -70 17 -67 9 2 20 14 23 27 l6 24 17 -26 c10
-15 26 -27 37 -27 26 0 25 12 0 35 -14 13 -17 22 -10 29 16 16 12 63 -6 70 -9
3 -31 6 -50 6 l-34 0 0 -71z m62 26 c0 -5 -5 -11 -11 -13 -6 -2 -11 4 -11 13
0 9 5 15 11 13 6 -2 11 -8 11 -13z"/>
<path d="M1526 2299 c-11 -58 -7 -87 16 -103 49 -35 85 -5 90 74 2 34 -1 45
-12 45 -9 0 -17 -15 -22 -44 -9 -50 -23 -70 -38 -55 -6 6 -7 27 -1 57 4 25 6
49 3 52 -14 14 -30 2 -36 -26z"/>
<path d="M1167 2313 c-3 -5 -8 -38 -12 -76 -6 -58 -5 -66 8 -61 9 3 18 12 21
20 7 17 43 19 48 2 2 -6 11 -9 20 -5 14 5 12 14 -15 66 -29 56 -56 76 -70 54z
m37 -58 c3 -8 1 -15 -4 -15 -6 0 -10 7 -10 15 0 8 2 15 4 15 2 0 6 -7 10 -15z"/>
<path d="M1736 2272 c-8 -13 -46 -116 -43 -118 1 -1 19 -9 39 -17 27 -12 39
-13 45 -4 3 6 2 12 -3 14 -34 12 -38 21 -25 60 7 21 14 43 17 49 5 13 -23 27
-30 16z"/>
<path d="M970 2249 c-13 -5 -26 -12 -28 -14 -7 -7 43 -125 53 -125 5 0 25 9
42 20 42 25 52 63 26 98 -22 29 -54 37 -93 21z m60 -33 c14 -18 10 -58 -8 -64
-13 -4 -44 57 -36 70 8 13 31 9 44 -6z"/>
<path d="M1911 2124 c-25 -43 -30 -59 -21 -67 9 -9 14 -8 24 6 19 24 24 21 28
-15 2 -22 9 -34 21 -36 15 -3 17 2 11 36 -6 39 -5 40 30 53 28 10 33 16 24 26
-6 8 -16 12 -22 10 -6 -2 -22 -8 -36 -12 -22 -7 -23 -6 -11 8 13 17 9 47 -6
47 -5 0 -23 -25 -42 -56z"/>
<path d="M777 2134 c-3 -4 1 -17 10 -30 17 -26 12 -30 -18 -13 -22 11 -59 3
-59 -13 0 -8 32 -55 69 -100 4 -4 12 -3 20 1 11 7 10 14 -8 37 -12 15 -20 29
-18 31 2 2 19 -3 38 -11 40 -17 71 -6 54 17 -5 8 -21 30 -35 50 -24 35 -39 44
-53 31z"/>
<path d="M1224 2115 c-179 -39 -362 -156 -474 -303 -257 -339 -231 -811 62
-1113 357 -368 945 -322 1243 96 181 254 210 582 76 860 -50 104 -84 153 -162
232 -160 162 -356 244 -579 242 -58 0 -132 -7 -166 -14z m308 -19 c384 -74
658 -410 658 -806 0 -369 -242 -693 -591 -790 -385 -106 -790 102 -943 484
-46 114 -58 195 -53 341 3 113 8 143 36 225 41 121 95 213 179 302 194 206
453 294 714 244z"/>
<path d="M1305 2051 c-130 -21 -239 -68 -343 -148 -185 -142 -292 -364 -292
-608 0 -224 71 -395 225 -550 91 -91 175 -144 290 -182 71 -24 96 -27 215 -27
122 0 143 2 215 27 254 88 432 287 496 552 28 117 23 292 -11 400 -81 258
-285 459 -525 519 -77 19 -206 27 -270 17z m93 -656 c1 -76 -2 -152 -8 -168
-8 -24 -6 -34 10 -54 22 -29 26 -70 8 -108 -15 -34 -28 -31 -29 8 -2 30 -2 30
-8 -8 l-6 -40 -19 48 c-19 49 -18 62 16 109 10 13 10 24 0 51 -13 35 -17 222
-6 276 5 22 12 31 23 29 14 -3 16 -24 19 -143z m-173 -376 c77 -22 145 -41
150 -41 6 0 77 18 159 41 111 30 153 38 163 30 7 -6 10 -15 7 -20 -3 -5 -1 -9
3 -9 15 0 75 -92 66 -100 -17 -15 -363 -128 -368 -121 -2 5 -8 41 -11 80 -4
39 -10 74 -14 76 -4 2 -10 -32 -14 -77 -4 -45 -8 -83 -9 -84 -1 -2 -74 20
-162 47 -88 27 -177 54 -198 60 -32 8 -36 13 -27 24 7 8 17 12 23 8 6 -3 7 -1
3 5 -6 11 71 122 84 122 3 0 68 -18 145 -41z"/>
<path d="M2065 2002 c-57 -31 -62 -45 -20 -52 24 -4 31 -11 35 -35 3 -17 9
-29 14 -28 14 3 59 111 53 128 -9 21 -24 19 -82 -13z m37 -34 c-7 -7 -12 -8
-12 -2 0 6 3 14 7 17 3 4 9 5 12 2 2 -3 -1 -11 -7 -17z"/>
<path d="M594 1965 c-8 -19 49 -120 67 -120 8 0 13 12 14 30 0 25 4 30 25 30
47 0 33 29 -25 53 -65 26 -74 27 -81 7z m66 -45 c0 -5 -4 -10 -10 -10 -5 0
-10 5 -10 10 0 6 5 10 10 10 6 0 10 -4 10 -10z"/>
<path d="M2187 1865 c-30 -23 -44 -41 -41 -50 7 -17 20 -19 29 -5 13 21 24 9
19 -19 -3 -16 -1 -37 4 -48 12 -20 10 -21 27 32 2 8 13 15 23 15 21 0 42 18
42 38 0 17 -38 72 -49 72 -5 0 -29 -16 -54 -35z m66 -20 c8 -18 -11 -31 -25
-17 -11 11 -3 32 12 32 4 0 10 -7 13 -15z"/>
<path d="M491 1824 c-25 -32 -26 -47 -5 -68 21 -21 37 -20 59 4 10 11 22 20
27 20 16 0 7 -29 -14 -44 -18 -13 -20 -18 -9 -28 10 -11 17 -8 37 15 28 32 31
59 8 81 -20 21 -26 20 -57 -4 -30 -24 -45 -11 -17 15 19 17 19 35 0 35 -5 0
-18 -12 -29 -26z"/>
<path d="M2293 1705 c-63 -27 -52 -117 15 -123 44 -4 87 37 78 76 -6 25 -39
63 -55 62 -3 -1 -20 -7 -38 -15z m61 -42 c10 -26 -20 -48 -61 -44 -19 2 -16
39 5 50 26 15 49 13 56 -6z"/>
<path d="M396 1634 c-4 -9 -5 -17 -4 -18 2 -1 25 -21 51 -46 36 -33 50 -41 59
-32 8 8 8 15 -1 25 -15 19 -5 44 20 50 10 3 19 12 19 21 0 24 -135 23 -144 0z
m74 -24 c0 -5 -4 -10 -10 -10 -5 0 -10 5 -10 10 0 6 5 10 10 10 6 0 10 -4 10
-10z"/>
<path d="M2375 1505 c-5 -2 -22 -6 -37 -9 -17 -4 -28 -13 -28 -22 0 -13 7 -15
38 -11 32 5 35 4 20 -7 -26 -19 -23 -46 5 -47 17 -1 15 -3 -10 -10 -30 -9 -42
-27 -28 -41 6 -6 114 17 122 26 13 12 -9 36 -39 44 l-33 8 28 18 c37 25 37 56
0 55 -16 0 -32 -2 -38 -4z"/>
<path d="M350 1483 c0 -9 7 -24 16 -34 14 -16 14 -18 -4 -23 -20 -7 -37 -34
-28 -44 3 -2 19 1 37 7 18 6 47 11 66 11 27 0 34 4 31 18 -2 9 -13 18 -24 20
-12 2 -34 16 -49 33 -33 33 -45 37 -45 12z"/>
<path d="M395 1283 c-96 -29 -99 -51 -12 -86 41 -17 65 -22 72 -15 7 6 4 14
-7 22 -22 16 -23 52 -3 60 15 5 22 37 8 35 -5 -1 -30 -8 -58 -16z m5 -43 c0
-5 -5 -10 -11 -10 -5 0 -7 5 -4 10 3 6 8 10 11 10 2 0 4 -4 4 -10z"/>
<path d="M2330 1271 c0 -5 7 -14 15 -21 19 -16 19 -37 -1 -57 -28 -28 0 -34
65 -12 52 18 62 25 59 42 -2 14 -17 25 -53 38 -56 20 -85 23 -85 10z m80 -45
c0 -3 -4 -8 -10 -11 -5 -3 -10 -1 -10 4 0 6 5 11 10 11 6 0 10 -2 10 -4z"/>
<path d="M336 1093 c-9 -9 14 -43 29 -43 19 0 19 -16 0 -24 -14 -5 -22 -46 -9
-46 3 0 20 11 37 24 18 13 42 27 55 31 12 3 22 14 22 24 0 14 -6 17 -28 13
-16 -2 -45 3 -64 11 -20 9 -39 13 -42 10z"/>
<path d="M2322 1073 c2 -10 13 -19 26 -21 14 -2 22 -10 22 -23 0 -14 -7 -19
-30 -19 -19 0 -30 -5 -30 -14 0 -17 16 -23 80 -32 41 -5 50 -4 50 9 0 9 -9 19
-20 22 -11 4 -20 15 -20 27 0 16 5 19 25 16 19 -4 25 -1 25 13 0 13 -13 20
-50 28 -70 15 -82 14 -78 -6z"/>
<path d="M521 845 c-6 -16 -14 -36 -16 -42 -3 -8 -22 -13 -47 -13 l-43 -1 34
-29 c33 -28 34 -31 23 -67 -6 -20 -9 -39 -7 -41 2 -2 16 5 31 17 33 26 42 26
74 1 37 -29 41 -25 24 21 -13 39 -13 43 3 55 62 44 62 43 11 44 -31 0 -48 4
-48 13 -1 6 -7 26 -14 42 l-14 30 -11 -30z"/>
<path d="M2231 830 c-12 -39 -13 -40 -59 -40 l-47 0 38 -27 c29 -20 37 -32 33
-48 -3 -11 -9 -31 -12 -44 -6 -21 -5 -22 14 -12 11 6 24 16 27 21 10 16 35 12
62 -10 33 -26 38 -20 23 24 -11 33 -10 37 22 65 l33 30 -42 1 c-40 0 -43 2
-54 40 -7 22 -15 40 -19 40 -4 0 -12 -18 -19 -40z"/>
<path d="M692 551 c-34 -40 -39 -51 -28 -60 10 -8 16 -8 25 3 10 12 16 12 39
0 22 -11 30 -11 47 0 30 20 30 45 -1 77 -15 16 -31 29 -34 29 -4 0 -25 -22
-48 -49z m68 -16 c0 -8 -7 -15 -15 -15 -16 0 -20 12 -8 23 11 12 23 8 23 -8z"/>
<path d="M2005 579 c-4 -5 1 -19 11 -30 19 -21 5 -26 -27 -8 -15 7 -24 7 -35
-2 -21 -17 -17 -30 25 -76 25 -28 42 -39 51 -33 10 6 9 14 -9 36 -26 33 -23
38 13 24 36 -13 66 -13 66 1 0 15 -68 99 -80 99 -5 0 -12 -5 -15 -11z"/>
<path d="M820 454 c-52 -42 -57 -59 -15 -59 23 0 31 -5 33 -22 2 -12 9 -24 16
-26 10 -4 19 13 31 55 27 96 9 111 -65 52z m40 -24 c0 -5 -5 -10 -11 -10 -5 0
-7 5 -4 10 3 6 8 10 11 10 2 0 4 -4 4 -10z"/>
<path d="M1834 456 c-9 -23 21 -121 37 -121 8 0 15 10 17 23 3 23 10 26 50 22
37 -3 25 23 -26 58 -52 35 -70 39 -78 18z m56 -46 c0 -5 -4 -10 -10 -10 -5 0
-10 5 -10 10 0 6 5 10 10 10 6 0 10 -4 10 -10z"/>
<path d="M961 388 c-31 -74 -34 -88 -17 -88 8 0 22 12 30 28 10 18 15 22 16
10 0 -24 18 -32 37 -16 14 11 16 10 11 -7 -3 -11 -7 -26 -9 -34 -2 -8 3 -16
12 -18 11 -3 22 12 37 52 26 68 27 71 5 79 -10 4 -25 -2 -40 -15 l-23 -22 0
30 c0 27 -14 43 -36 43 -3 0 -13 -19 -23 -42z"/>
<path d="M1697 392 c-34 -38 -14 -72 42 -72 26 0 32 -3 24 -11 -6 -6 -23 -11
-37 -11 -28 0 -34 -12 -13 -25 28 -18 87 13 87 47 0 24 -20 40 -52 40 -15 0
-28 5 -28 10 0 6 11 10 25 10 16 0 25 6 25 15 0 22 -53 19 -73 -3z"/>
<path d="M1176 345 c-3 -8 -8 -37 -12 -65 -5 -41 -4 -50 8 -50 9 0 30 -3 47
-6 24 -5 31 -3 31 9 0 9 -10 17 -22 19 -35 5 -34 28 2 28 36 0 37 23 2 28 -12
2 -22 8 -22 13 0 7 12 8 30 4 23 -5 30 -3 30 8 0 27 -84 38 -94 12z"/>
<path d="M1537 353 c-4 -3 -7 -37 -7 -74 0 -57 3 -67 15 -63 8 4 15 12 15 19
0 17 31 28 44 15 13 -13 36 -13 36 0 0 6 -15 33 -32 60 -30 46 -54 60 -71 43z
m43 -64 c0 -5 -4 -9 -10 -9 -5 0 -10 7 -10 16 0 8 5 12 10 9 6 -3 10 -10 10
-16z"/>
<path d="M1400 321 c-19 -26 -19 -26 -20 -3 0 15 -6 22 -20 22 -18 0 -20 -7
-20 -65 0 -58 2 -65 20 -65 14 0 20 7 20 23 l1 22 18 -22 c11 -13 29 -23 41
-23 l21 0 -20 29 c-25 34 -26 54 -6 71 8 7 15 18 15 25 0 21 -30 13 -50 -14z"/>
</g>
</svg>
